{
  "asset": {
    "generator": "Khronos glTF Blender I/O v4.0.44",
    "version": "2.0"
  },
  "scene": 0,
  "scenes": [
    {
      "name": "Scene",
      "nodes": [
        0,
        1
      ]
    }
  ],
  "nodes": [
    {
      "mesh": 0,
      "name": "外层火",
      "rotation": [
        0,
        0,
        -0.7071066498756409,
        0.70710688829422
      ],
      "scale": [
        1,
        1.600000023841858,
        1
      ],
      "translation": [
        0,
        0,
        0
      ]
    },
    {
      "mesh": 1,
      "name": "内层火",
      "rotation": [
        0,
        0,
        -0.7071066498756409,
        0.70710688829422
      ],
      "scale": [
        0.6671919822692871,
        1.8147623538970947,
        0.6671919822692871
      ],
      "translation": [
        0.42952442169189453,
        0,
        0
      ]
    }
  ],
  "materials": [
    {
      "alphaMode": "BLEND",
      "doubleSided": true,
      "name": "fire1",
      "pbrMetallicRoughness": {
        "baseColorFactor": [
          0.8000074625015259,
          0.08982238918542862,
          0.06941036880016327,
          1
        ],
        "metallicFactor": 0,
        "roughnessFactor": 0.5
      },
      "emissiveFactor": [
        0,
        0,
        0
      ]
    },
    {
      "alphaMode": "BLEND",
      "doubleSided": true,
      "name": "fire1.001",
      "pbrMetallicRoughness": {
        "baseColorFactor": [
          0.030716486275196075,
          0.07203084975481033,
          0.8000074625015259,
          1
        ],
        "metallicFactor": 0,
        "roughnessFactor": 0.5
      },
      "emissiveFactor": [
        0,
        0,
        0
      ]
    }
  ],
  "meshes": [
    {
      "name": "柱体",
      "primitives": [
        {
          "attributes": {
            "POSITION": 0,
            "NORMAL": 1,
            "TEXCOORD_0": 2
          },
          "indices": 3,
          "material": 0,
          "mode": 4
        }
      ]
    },
    {
      "name": "柱体.002",
      "primitives": [
        {
          "attributes": {
            "POSITION": 4,
            "NORMAL": 5,
            "TEXCOORD_0": 6
          },
          "indices": 7,
          "material": 1,
          "mode": 4
        }
      ]
    }
  ],
  "accessors": [
    {
      "bufferView": 0,
      "componentType": 5126,
      "count": 8373,
      "max": [
        0.7589721083641052,
        2.000000238418579,
        0.7589718699455261
      ],
      "min": [
        -0.7589721083641052,
        -2.000000238418579,
        -0.7589575052261353
      ],
      "type": "VEC3",
      "byteOffset": 0
    },
    {
      "bufferView": 1,
      "componentType": 5126,
      "count": 8373,
      "type": "VEC3",
      "byteOffset": 0
    },
    {
      "bufferView": 2,
      "componentType": 5126,
      "count": 8373,
      "type": "VEC2",
      "byteOffset": 0
    },
    {
      "bufferView": 3,
      "componentType": 5123,
      "count": 16128,
      "type": "SCALAR",
      "byteOffset": 0
    },
    {
      "bufferView": 4,
      "componentType": 5126,
      "count": 2040,
      "max": [
        1.0000001192092896,
        2.420414686203003,
        1.000000238418579
      ],
      "min": [
        -1.0000001192092896,
        -1.9795852899551392,
        -1.0000001192092896
      ],
      "type": "VEC3",
      "byteOffset": 0
    },
    {
      "bufferView": 5,
      "componentType": 5126,
      "count": 2040,
      "type": "VEC3",
      "byteOffset": 0
    },
    {
      "bufferView": 6,
      "componentType": 5126,
      "count": 2040,
      "type": "VEC2",
      "byteOffset": 0
    },
    {
      "bufferView": 7,
      "componentType": 5123,
      "count": 4032,
      "type": "SCALAR",
      "byteOffset": 0
    }
  ],
  "bufferViews": [
    {
      "buffer": 0,
      "byteLength": 100476,
      "byteOffset": 0,
      "target": 34962,
      "byteStride": 12
    },
    {
      "buffer": 0,
      "byteLength": 100476,
      "byteOffset": 100480,
      "target": 34962,
      "byteStride": 12
    },
    {
      "buffer": 0,
      "byteLength": 66984,
      "byteOffset": 200960,
      "target": 34962,
      "byteStride": 8
    },
    {
      "buffer": 0,
      "byteLength": 32256,
      "byteOffset": 267944,
      "target": 34963
    },
    {
      "buffer": 0,
      "byteLength": 24480,
      "byteOffset": 300200,
      "target": 34962,
      "byteStride": 12
    },
    {
      "buffer": 0,
      "byteLength": 24480,
      "byteOffset": 324680,
      "target": 34962,
      "byteStride": 12
    },
    {
      "buffer": 0,
      "byteLength": 16320,
      "byteOffset": 349160,
      "target": 34962,
      "byteStride": 8
    },
    {
      "buffer": 0,
      "byteLength": 8064,
      "byteOffset": 365480,
      "target": 34963
    }
  ],
  "buffers": [
    {
      "name": "fire2",
      "byteLength": 373544,
      "uri": "data:application/octet-stream;base64,"
    }
  ]
}
